<mxfile host="app.diagrams.net" modified="2024-03-03T17:17:35.910Z" agent="Mozilla/5.0 (Windows NT 10.0; Win64; x64; rv:122.0) Gecko/20100101 Firefox/122.0" version="24.0.1" etag="Qihr8zda_51LrVPnFAtz" type="github">
  <diagram name="Page-1" id="z_wtiDczIMmnqcZvkEKk">
    <mxGraphModel>
      <root>
        <mxCell id="0" />
        <mxCell id="1" parent="0" />
      </root>
    </mxGraphModel>
  </diagram>
</mxfile>
